<svg width="139" height="40" viewBox="0 0 139 40" fill="none" xmlns="http://www.w3.org/2000/svg">
<path d="M15.0006 30.352L8.33659 26.464V22.464L5.55859 21.168V28.06L15.0006 33.568L22.6186 29.124L19.5546 27.694L15.0006 30.352Z" fill="#0D0D0D"/>
<path d="M30 23.37V8.75L15 0L0 8.75V9.382V12.446V15.512V18.576V31.25L15 40L28.746 31.982L30 31.25V29.5V26.436L27.222 25.14L24.442 23.844L21.664 22.548L15.778 19.804L8.336 16.334V13.536L8.464 13.462L8.59 13.388L15 9.648L21.664 13.536V19.484L24.442 20.78V11.94L15 6.432L5.558 11.94V11.974V15.038V18.104L8.336 19.398L17.842 23.832L21.664 25.614L23.148 26.306L24.442 26.91L27.222 28.206V29.654L25.682 30.552L15 36.784L2.778 29.654V19.872V16.806V13.742V10.676V10.346L15 3.216L27.222 10.346V22.076L30 23.37Z" fill="#0D0D0D"/>
<path d="M41.0395 26.0834C42.004 26.0834 42.787 25.9132 43.3884 25.5728C43.9898 25.2323 44.4891 24.7501 44.8863 24.126L45.0395 26.08H46.6905V19.4111H41.6352V20.8068H44.8692C44.7671 21.9189 44.4182 22.8097 43.8224 23.4792C43.2267 24.1487 42.3387 24.4834 41.1586 24.4834C39.9898 24.4834 39.0536 24.0862 38.3501 23.2919C37.6465 22.4976 37.2948 21.3912 37.2948 19.9728C37.2948 18.5543 37.6522 17.4423 38.3671 16.6366C39.082 15.8309 40.0636 15.4281 41.3118 15.4281C42.1515 15.4281 42.838 15.6097 43.3714 15.9728C43.9047 16.3359 44.2621 16.8352 44.4437 17.4706H46.4863C46.2139 16.3132 45.6239 15.4054 44.716 14.7472C43.8082 14.0891 42.6735 13.76 41.3118 13.76C40.109 13.76 39.0678 14.0238 38.1884 14.5515C37.309 15.0792 36.6309 15.8082 36.1543 16.7387C35.6778 17.6692 35.4395 18.7416 35.4395 19.9558C35.4395 21.1813 35.6721 22.2536 36.1373 23.1728C36.6026 24.0919 37.2551 24.8068 38.0948 25.3175C38.9345 25.8281 39.916 26.0834 41.0395 26.0834Z" fill="#0D0D0D"/>
<path d="M49.855 26.08V21.8758C49.855 21.1836 49.9713 20.6417 50.204 20.2502C50.4366 19.8588 50.7487 19.5807 51.1401 19.4162C51.5316 19.2517 51.977 19.1694 52.4763 19.1694H52.9699V17.28C52.221 17.28 51.5827 17.4417 51.055 17.7651C50.5274 18.0885 50.116 18.5283 49.821 19.0843L49.6678 17.28H48.0508V26.08H49.855Z" fill="#0D0D0D"/>
<path d="M58.1129 17.28C58.914 17.28 59.6332 17.4634 60.2706 17.83C60.9081 18.1967 61.4158 18.71 61.7937 19.37C62.1717 20.03 62.3606 20.8 62.3606 21.68C62.3606 22.56 62.1717 23.33 61.7937 23.99C61.4158 24.65 60.9052 25.1634 60.2622 25.53C59.6191 25.8967 58.897 26.08 58.096 26.08C57.295 26.08 56.5758 25.8967 55.9383 25.53C55.3009 25.1634 54.796 24.65 54.4237 23.99C54.0514 23.33 53.8652 22.56 53.8652 21.68C53.8652 20.8 54.0542 20.03 54.4322 19.37C54.8101 18.71 55.3206 18.1967 55.9637 17.83C56.6068 17.4634 57.3232 17.28 58.1129 17.28ZM58.1129 18.82C57.6842 18.82 57.2865 18.9272 56.9199 19.1416C56.5532 19.3559 56.257 19.6746 56.0314 20.0977C55.8057 20.5208 55.6929 21.0482 55.6929 21.68C55.6929 22.3118 55.8057 22.8393 56.0314 23.2623C56.257 23.6854 56.5504 24.0041 56.9114 24.2185C57.2724 24.4328 57.6673 24.54 58.096 24.54C58.5247 24.54 58.9224 24.4328 59.2891 24.2185C59.6558 24.0041 59.9519 23.6854 60.1776 23.2623C60.4032 22.8393 60.516 22.3118 60.516 21.68C60.516 21.0482 60.406 20.5208 60.186 20.0977C59.966 19.6746 59.6727 19.3559 59.306 19.1416C58.9393 18.9272 58.5417 18.82 58.1129 18.82Z" fill="#0D0D0D"/>
<path d="M67.5963 26.08L69.5367 19.0843L71.4771 26.08H73.3325L75.8176 17.28H74.0133L72.3793 24.0034L70.541 17.28H68.5325L66.6942 24.0034L65.0601 17.28H63.2559L65.741 26.08H67.5963Z" fill="#0D0D0D"/>
<path d="M82.9476 26.0834C83.844 26.0834 84.5986 25.9217 85.2114 25.5983C85.8242 25.2749 86.2837 24.855 86.5901 24.3387C86.8965 23.8224 87.0497 23.2636 87.0497 22.6621C87.0497 21.9813 86.9107 21.4196 86.6327 20.977C86.3547 20.5345 85.983 20.177 85.5178 19.9047C85.0525 19.6323 84.5249 19.3997 83.9348 19.2068C83.322 18.9912 82.7774 18.8011 82.3008 18.6366C81.8242 18.4721 81.4497 18.265 81.1774 18.0153C80.905 17.7657 80.7688 17.4082 80.7688 16.943C80.7688 16.421 80.9532 16.0125 81.322 15.7175C81.6908 15.4224 82.1589 15.2806 82.7263 15.2919C83.1688 15.2919 83.5433 15.3827 83.8497 15.5643C84.1561 15.7458 84.3887 15.9756 84.5476 16.2536C84.7064 16.5316 84.7859 16.8238 84.7859 17.1302H86.6922C86.6809 16.4607 86.5107 15.8735 86.1816 15.3685C85.8525 14.8636 85.3958 14.4692 84.8114 14.1855C84.227 13.9019 83.549 13.76 82.7774 13.76C81.9944 13.76 81.3107 13.899 80.7263 14.177C80.1419 14.455 79.688 14.8437 79.3646 15.343C79.0412 15.8423 78.8852 16.4267 78.8965 17.0962C78.8965 17.8905 79.1263 18.5316 79.5859 19.0196C80.0454 19.5075 80.7348 19.9047 81.654 20.2111C82.1192 20.3699 82.5618 20.5175 82.9816 20.6536C83.4015 20.7898 83.7731 20.943 84.0965 21.1132C84.4199 21.2834 84.6752 21.499 84.8625 21.76C85.0497 22.021 85.1433 22.3614 85.1433 22.7813C85.1433 23.3033 84.9476 23.7316 84.5561 24.0664C84.1646 24.4011 83.6227 24.5685 82.9305 24.5685C82.1476 24.5685 81.5405 24.3472 81.1093 23.9047C80.6781 23.4621 80.4568 22.9231 80.4454 22.2877H78.5391C78.5504 23.0706 78.7405 23.7458 79.1093 24.3132C79.4781 24.8806 79.9915 25.3175 80.6497 25.6238C81.3079 25.9302 82.0738 26.0834 82.9476 26.0834Z" fill="#0D0D0D"/>
<path d="M89.3126 15.5648C89.5741 15.5648 89.7899 15.4792 89.96 15.308C90.13 15.1367 90.215 14.9216 90.215 14.6624C90.215 14.4033 90.13 14.1881 89.96 14.0168C89.7899 13.8456 89.5741 13.76 89.3126 13.76C89.051 13.76 88.8352 13.8456 88.6652 14.0168C88.4952 14.1881 88.4102 14.4033 88.4102 14.6624C88.4102 14.9216 88.4952 15.1367 88.6652 15.308C88.8352 15.4792 89.051 15.5648 89.3126 15.5648Z" fill="#0D0D0D"/>
<path d="M90.2144 26.08V17.28H88.4102V26.08H90.2144Z" fill="#0D0D0D"/>
<path d="M93.3785 26.08V21.5694C93.3785 20.6843 93.5799 20.0034 93.9827 19.5268C94.3856 19.0502 94.899 18.8119 95.5231 18.8119C96.7827 18.8119 97.4125 19.629 97.4125 21.263V26.08H99.2168V21.5694C99.2168 20.6843 99.4182 20.0034 99.821 19.5268C100.224 19.0502 100.743 18.8119 101.378 18.8119C102.627 18.8119 103.251 19.629 103.251 21.263V26.08H105.055V21.0758C105.055 19.8162 104.754 18.8687 104.153 18.2332C103.552 17.5978 102.723 17.28 101.668 17.28C101.066 17.28 100.508 17.4219 99.9912 17.7056C99.4749 17.9892 99.0636 18.3751 98.7572 18.863C98.2352 17.8077 97.3047 17.28 95.9657 17.28C95.3756 17.28 94.8565 17.4049 94.4083 17.6545C93.96 17.9041 93.5997 18.2446 93.3274 18.6758L93.1742 17.28H91.5742V26.08H93.3785Z" fill="#0D0D0D"/>
<path d="M108.033 17.28L108.22 18.7949C108.493 18.3978 108.867 18.046 109.344 17.7396C109.82 17.4332 110.433 17.28 111.182 17.28C111.999 17.28 112.72 17.4729 113.344 17.8588C113.968 18.2446 114.459 18.7722 114.816 19.4417C115.173 20.1112 115.352 20.8715 115.352 21.7226C115.352 22.5736 115.173 23.3311 114.816 23.9949C114.459 24.6588 113.968 25.1807 113.344 25.5609C112.72 25.941 111.993 26.1311 111.165 26.1311C110.507 26.1311 109.925 26.0006 109.42 25.7396C108.915 25.4786 108.515 25.1098 108.22 24.6332V29.6715H106.416V17.28H108.033ZM110.859 18.846C110.087 18.846 109.454 19.1127 108.961 19.646C108.467 20.1793 108.22 20.8658 108.22 21.7056C108.22 22.5566 108.467 23.246 108.961 23.7736C109.454 24.3013 110.087 24.5651 110.859 24.5651C111.63 24.5651 112.266 24.3013 112.765 23.7736C113.264 23.246 113.514 22.5566 113.514 21.7056C113.514 21.1495 113.4 20.6559 113.173 20.2247C112.947 19.7935 112.634 19.4559 112.237 19.2119C111.84 18.968 111.381 18.846 110.859 18.846Z" fill="#0D0D0D"/>
<path d="M118.515 26.08V13.76H116.711V26.08H118.515Z" fill="#0D0D0D"/>
<path d="M124.147 17.28C124.976 17.28 125.696 17.4644 126.309 17.8332C126.922 18.202 127.398 18.6928 127.739 19.3056C128.079 19.9183 128.249 20.5935 128.249 21.3311C128.249 21.4446 128.247 21.5666 128.241 21.6971C128.235 21.8275 128.227 21.9722 128.215 22.1311H121.645L121.651 22.2071C121.719 22.9868 121.987 23.5827 122.454 23.9949C122.936 24.4205 123.495 24.6332 124.13 24.6332C124.641 24.6332 125.069 24.5169 125.415 24.2843C125.762 24.0517 126.02 23.7368 126.19 23.3396H127.994L127.971 23.4186C127.737 24.178 127.294 24.8155 126.641 25.3311C125.966 25.8644 125.129 26.1311 124.13 26.1311C123.302 26.1311 122.567 25.9467 121.926 25.5779C121.285 25.2091 120.783 24.6956 120.42 24.0375C120.057 23.3793 119.875 22.6134 119.875 21.7396C119.875 20.8545 120.054 20.0772 120.411 19.4077C120.769 18.7382 121.268 18.2162 121.909 17.8417C122.55 17.4673 123.296 17.28 124.147 17.28ZM124.13 18.7609C123.529 18.7609 122.996 18.9396 122.53 19.2971C122.065 19.6545 121.781 20.1907 121.679 20.9056H126.445C126.411 20.2474 126.179 19.7254 125.747 19.3396C125.316 18.9538 124.777 18.7609 124.13 18.7609Z" fill="#0D0D0D"/>
<path d="M133.882 17.28C134.71 17.28 135.431 17.4644 136.043 17.8332C136.656 18.202 137.133 18.6928 137.473 19.3056C137.814 19.9183 137.984 20.5935 137.984 21.3311C137.984 21.4446 137.981 21.5666 137.975 21.6971C137.97 21.8275 137.961 21.9722 137.95 22.1311H131.38L131.386 22.2071C131.453 22.9868 131.721 23.5827 132.188 23.9949C132.67 24.4205 133.229 24.6332 133.865 24.6332C134.375 24.6332 134.804 24.5169 135.15 24.2843C135.496 24.0517 135.754 23.7368 135.924 23.3396H137.729L137.705 23.4186C137.471 24.178 137.028 24.8155 136.375 25.3311C135.7 25.8644 134.863 26.1311 133.865 26.1311C133.036 26.1311 132.302 25.9467 131.66 25.5779C131.019 25.2091 130.517 24.6956 130.154 24.0375C129.791 23.3793 129.609 22.6134 129.609 21.7396C129.609 20.8545 129.788 20.0772 130.146 19.4077C130.503 18.7382 131.002 18.2162 131.643 17.8417C132.285 17.4673 133.031 17.28 133.882 17.28ZM133.865 18.7609C133.263 18.7609 132.73 18.9396 132.265 19.2971C131.799 19.6545 131.516 20.1907 131.414 20.9056H136.18C136.146 20.2474 135.913 19.7254 135.482 19.3396C135.051 18.9538 134.511 18.7609 133.865 18.7609Z" fill="#0D0D0D"/>
</svg>
